<?xml version="1.0" encoding="UTF-8" standalone="no"?>
<svg width="229" height="41" viewBox="0 0 229 41" version="1.1" id="svg54" sodipodi:docname="ms-symbollockup_signin_light.svg" inkscape:export-filename="/Users/blazosredkar/Downloads/ms-symbollockup_signin_light.png" inkscape:export-xdpi="229.46341" inkscape:export-ydpi="229.46341" inkscape:version="1.1.2 (b8e25be8, 2022-02-05)" xmlns:inkscape="http://www.inkscape.org/namespaces/inkscape" xmlns:sodipodi="http://sodipodi.sourceforge.net/DTD/sodipodi-0.dtd" xmlns="http://www.w3.org/2000/svg" xmlns:svg="http://www.w3.org/2000/svg" xmlns:rdf="http://www.w3.org/1999/02/22-rdf-syntax-ns#" xmlns:cc="http://creativecommons.org/ns#" xmlns:dc="http://purl.org/dc/elements/1.1/">
  <defs id="defs58"/>
  <sodipodi:namedview id="namedview56" pagecolor="#ffffff" bordercolor="#111111" borderopacity="1" inkscape:pageshadow="0" inkscape:pageopacity="0" inkscape:pagecheckerboard="1" showgrid="false" inkscape:zoom="7.1236897" inkscape:cx="164.73205" inkscape:cy="25.05724" inkscape:window-width="2560" inkscape:window-height="1387" inkscape:window-x="0" inkscape:window-y="25" inkscape:window-maximized="0" inkscape:current-layer="svg54" width="220px"/>
  <title id="title2">MS-SymbolLockup</title>
  <rect width="228.89659" height="41" fill="#ffffff" id="rect4" x="0" y="0" style="stroke-width:1.03181"/>
  <path id="path33437" style="font-size:14.6667px;line-height:1.25;font-family:'Segoe UI';-inkscape-font-specification:'Segoe UI, Normal';fill:#72727c;stroke:#767676;stroke-width:0.5;stroke-miterlimit:4;stroke-dasharray:none;stroke-opacity:1" d="m 207.75249,25.082001 h -1.17448 v -4.210947 q 0,-1.217451 -0.37956,-1.761723 -0.3724,-0.544272 -1.26042,-0.544272 -0.75196,0 -1.28191,0.687501 -0.52278,0.687502 -0.52278,1.647139 v 4.182302 h -1.17449 v -4.354177 q 0,-2.162765 -1.66862,-2.162765 -0.77344,0 -1.27474,0.651694 -0.50131,0.644533 -0.50131,1.682946 v 4.182302 h -1.17448 v -7.33335 h 1.17448 v 1.160158 h 0.0286 q 0.7806,-1.332034 2.27735,-1.332034 0.75195,0 1.31055,0.422527 0.55859,0.415366 0.76628,1.095706 0.81641,-1.518233 2.4349,-1.518233 2.42058,0 2.42058,2.986335 z m -15.94146,0.171875 q -1.62565,0 -2.59961,-1.024091 -0.9668,-1.031252 -0.9668,-2.728522 0,-1.84766 1.00977,-2.886074 1.00976,-1.038414 2.72852,-1.038414 1.63998,0 2.55665,1.009768 0.92383,1.009768 0.92383,2.800137 0,1.754561 -0.99545,2.814459 -0.98828,1.052737 -2.65691,1.052737 z m 0.0859,-6.688817 q -1.13151,0 -1.79037,0.773439 -0.65885,0.766278 -0.65885,2.119796 0,1.303389 0.66601,2.055344 0.66602,0.751955 1.78321,0.751955 1.13868,0 1.7474,-0.737632 0.61589,-0.737632 0.61589,-2.098312 0,-1.375004 -0.61589,-2.119797 -0.60872,-0.744793 -1.7474,-0.744793 z m -5.37105,6.516942 h -1.17448 v -4.182302 q 0,-2.33464 -1.70443,-2.33464 -0.88087,0 -1.46094,0.666017 -0.57292,0.658856 -0.57292,1.668623 v 4.182302 h -1.17448 v -7.33335 h 1.17448 v 1.21745 h 0.0286 q 0.83073,-1.389326 2.40626,-1.389326 1.20313,0 1.8405,0.780601 0.63737,0.773439 0.63737,2.241542 z m -8.46487,0 h -1.17448 v -1.160159 h -0.0286 q -0.73047,1.332034 -2.26303,1.332034 -2.6211,0 -2.6211,-3.122403 v -4.382822 h 1.16732 v 4.196624 q 0,2.320318 1.77605,2.320318 0.85938,0 1.41081,-0.63021 0.5586,-0.637371 0.5586,-1.661462 v -4.22527 h 1.17448 z m -7.72007,-0.33659 q -0.84506,0.508465 -2.00522,0.508465 -1.56836,0 -2.53516,-1.016929 -0.95964,-1.024091 -0.95964,-2.649746 0,-1.811853 1.03842,-2.907559 1.03841,-1.102867 2.77149,-1.102867 0.9668,0 1.70443,0.358074 v 1.203128 q -0.81641,-0.572918 -1.7474,-0.572918 -1.12435,0 -1.84766,0.809246 -0.71615,0.802086 -0.71615,2.112635 0,1.289066 0.67318,2.033859 0.68034,0.744794 1.81902,0.744794 0.95963,0 1.80469,-0.637372 z m -0.043,-10.749373 -1.53256,2.363286 h -0.94531 l -1.54688,-2.363286 h 0.82357 l 1.17448,1.639977 1.17448,-1.639977 z m -7.18293,11.085963 h -1.17448 v -1.145836 h -0.0286 q -0.76627,1.317711 -2.25586,1.317711 -1.09571,0 -1.71875,-0.580079 -0.61589,-0.58008 -0.61589,-1.539717 0,-2.055344 2.42058,-2.391933 l 2.19857,-0.307943 q 0,-1.869145 -1.51107,-1.869145 -1.32487,0 -2.39193,0.902345 v -1.203127 q 1.08138,-0.687502 2.49219,-0.687502 2.58529,0 2.58529,2.735684 z m -1.17448,-3.709644 -1.76888,0.24349 q -0.81641,0.114584 -1.23178,0.408204 -0.41536,0.286459 -0.41536,1.024091 0,0.537111 0.37955,0.880861 0.38672,0.33659 1.0241,0.33659 0.8737,0 1.43945,-0.608726 0.57292,-0.615887 0.57292,-1.55404 z m -5.34962,-2.434902 q -0.30794,-0.236328 -0.88802,-0.236328 -0.75196,0 -1.26042,0.708986 -0.50131,0.708986 -0.50131,1.933598 v 3.73829 h -1.17448 v -7.33335 h 1.17448 v 1.511071 h 0.0286 q 0.25065,-0.77344 0.76628,-1.203128 0.51562,-0.43685 1.15299,-0.43685 0.45834,0 0.70183,0.100261 z m -9.41734,6.072931 q -0.41537,0.229167 -1.09571,0.229167 -1.92643,0 -1.92643,-2.148442 v -4.339854 h -1.26042 v -1.002606 h 1.26042 v -1.790369 l 1.17448,-0.379558 v 2.169927 h 1.84766 v 1.002606 h -1.84766 v 4.132171 q 0,0.737632 0.25065,1.052737 0.25065,0.315105 0.83073,0.315105 0.44401,0 0.76628,-0.24349 z m -4.36134,-9.753929 q -0.34375,-0.193359 -0.7806,-0.193359 -1.23177,0 -1.23177,1.55404 v 1.131513 h 1.71875 v 1.002606 h -1.71875 v 6.330744 h -1.16732 v -6.330744 h -1.25326 v -1.002606 h 1.25326 v -1.188805 q 0,-1.152998 0.66601,-1.819015 0.66602,-0.673178 1.66147,-0.673178 0.53711,0 0.85221,0.128906 z m -9.15237,9.997419 q -1.62565,0 -2.59961,-1.024091 -0.9668,-1.031252 -0.9668,-2.728522 0,-1.84766 1.00977,-2.886074 1.00977,-1.038414 2.72852,-1.038414 1.63998,0 2.55665,1.009768 0.92383,1.009768 0.92383,2.800137 0,1.754561 -0.99545,2.814459 -0.98828,1.052737 -2.65691,1.052737 z m 0.0859,-6.688817 q -1.13151,0 -1.79037,0.773439 -0.65885,0.766278 -0.65885,2.119796 0,1.303389 0.66602,2.055344 0.66601,0.751955 1.7832,0.751955 1.13868,0 1.7474,-0.737632 0.61589,-0.737632 0.61589,-2.098312 0,-1.375004 -0.61589,-2.119797 -0.60872,-0.744793 -1.7474,-0.744793 z m -9.81118,6.251967 v -1.260419 q 0.95964,0.708986 2.11263,0.708986 1.54688,0 1.54688,-1.031253 0,-0.29362 -0.13607,-0.494142 -0.1289,-0.207682 -0.35807,-0.365235 -0.22201,-0.157552 -0.52995,-0.279297 -0.30078,-0.128907 -0.65169,-0.264975 -0.48698,-0.19336 -0.85938,-0.386719 -0.36524,-0.200522 -0.61589,-0.444012 -0.24349,-0.250652 -0.37239,-0.565756 -0.12175,-0.315105 -0.12175,-0.737632 0,-0.515626 0.23633,-0.909508 0.23633,-0.401042 0.63021,-0.666017 0.39388,-0.272136 0.89518,-0.408204 0.50847,-0.136068 1.04558,-0.136068 0.95248,0 1.70443,0.329428 v 1.188805 q -0.80925,-0.529949 -1.86198,-0.529949 -0.32943,0 -0.59441,0.07878 -0.26497,0.07162 -0.45833,0.207683 -0.1862,0.136068 -0.29362,0.329428 -0.10026,0.186198 -0.10026,0.415365 0,0.286459 0.10026,0.479819 0.10742,0.19336 0.30794,0.343751 0.20052,0.150391 0.48698,0.272136 0.28646,0.121745 0.6517,0.264974 0.48698,0.186199 0.8737,0.38672 0.38672,0.19336 0.65885,0.444011 0.27214,0.24349 0.41537,0.565757 0.15039,0.322266 0.15039,0.766278 0,0.544272 -0.24349,0.945314 -0.23633,0.401043 -0.63737,0.666017 -0.40104,0.264975 -0.92383,0.393882 -0.52279,0.128906 -1.09571,0.128906 -1.13151,0 -1.96224,-0.43685 z m -5.08464,0.43685 q -1.62566,0 -2.59962,-1.024091 -0.9668,-1.031252 -0.9668,-2.728522 0,-1.84766 1.00977,-2.886074 1.00977,-1.038414 2.72852,-1.038414 1.63998,0 2.55665,1.009768 0.92383,1.009768 0.92383,2.800137 0,1.754561 -0.99545,2.814459 -0.98828,1.052737 -2.6569,1.052737 z m 0.0859,-6.688817 q -1.13151,0 -1.79037,0.773439 -0.65885,0.766278 -0.65885,2.119796 0,1.303389 0.66602,2.055344 0.66601,0.751955 1.7832,0.751955 1.13868,0 1.7474,-0.737632 0.61589,-0.737632 0.61589,-2.098312 0,-1.375004 -0.61589,-2.119797 -0.60872,-0.744793 -1.7474,-0.744793 z m -4.42576,0.372396 q -0.30794,-0.236328 -0.88802,-0.236328 -0.75195,0 -1.26042,0.708986 -0.5013,0.708986 -0.5013,1.933598 v 3.73829 h -1.17448 v -7.33335 h 1.17448 v 1.511071 h 0.0286 q 0.25066,-0.77344 0.76628,-1.203128 0.51563,-0.43685 1.153,-0.43685 0.45833,0 0.70182,0.100261 z m -5.6146,5.807956 q -0.84505,0.508465 -2.00521,0.508465 -1.56836,0 -2.53516,-1.016929 -0.95964,-1.024091 -0.95964,-2.649746 0,-1.811853 1.03842,-2.907559 1.03841,-1.102867 2.77149,-1.102867 0.96679,0 1.70443,0.358074 v 1.203128 q -0.81641,-0.572918 -1.7474,-0.572918 -1.12435,0 -1.84766,0.809246 -0.71615,0.802086 -0.71615,2.112635 0,1.289066 0.67318,2.033859 0.68034,0.744794 1.81901,0.744794 0.95964,0 1.80469,-0.637372 z m -7.94923,-8.858744 q -0.31511,0 -0.53711,-0.214844 -0.22201,-0.214844 -0.22201,-0.544272 0,-0.329428 0.22201,-0.544272 0.222,-0.222006 0.53711,-0.222006 0.32227,0 0.54427,0.222006 0.22917,0.214844 0.22917,0.544272 0,0.315105 -0.22917,0.53711 -0.222,0.222006 -0.54427,0.222006 z m 0.57292,9.195334 h -1.17449 v -7.33335 h 1.17449 z m -3.723973,0 h -1.195966 v -6.889339 q 0,-0.816408 0.10026,-1.998051 h -0.02865 q -0.171875,0.694663 -0.307943,0.995445 l -3.509123,7.891945 h -0.587241 l -3.501961,-7.834654 q -0.150391,-0.34375 -0.307943,-1.052736 h -0.02865 q 0.05729,0.615886 0.05729,2.012374 v 6.875016 H 87.325121 V 14.812446 h 1.589847 l 3.151049,7.161475 q 0.365235,0.823569 0.472657,1.231773 h 0.04297 q 0.307944,-0.845054 0.494142,-1.260419 l 3.215502,-7.132829 h 1.50391 z M 81.624589,18.08524 77.284735,24.079394 h 4.296885 v 1.002607 h -6.022801 v -0.365235 l 4.339854,-5.965509 h -3.93165 v -1.002606 h 5.657566 z m -15.783892,6.731786 v -1.260419 q 0.959637,0.708986 2.112635,0.708986 1.546878,0 1.546878,-1.031253 0,-0.29362 -0.136068,-0.494142 -0.128906,-0.207682 -0.358073,-0.365235 -0.222006,-0.157552 -0.52995,-0.279297 -0.300781,-0.128907 -0.651694,-0.264975 -0.48698,-0.19336 -0.859377,-0.386719 -0.365235,-0.200522 -0.615887,-0.444012 -0.24349,-0.250652 -0.372396,-0.565756 -0.121745,-0.315105 -0.121745,-0.737632 0,-0.515626 0.236328,-0.909508 0.236329,-0.401042 0.63021,-0.666017 0.393881,-0.272136 0.895185,-0.408204 0.508464,-0.136068 1.045575,-0.136068 0.952476,0 1.704431,0.329428 v 1.188805 q -0.809247,-0.529949 -1.861984,-0.529949 -0.329427,0 -0.594402,0.07878 -0.264975,0.07162 -0.458334,0.207683 -0.186199,0.136068 -0.293621,0.329428 -0.100261,0.186198 -0.100261,0.415365 0,0.286459 0.100261,0.479819 0.107422,0.19336 0.307944,0.343751 0.200521,0.150391 0.48698,0.272136 0.286459,0.121745 0.651694,0.264974 0.48698,0.186199 0.8737,0.38672 0.38672,0.19336 0.658856,0.444011 0.272136,0.24349 0.415365,0.565757 0.150391,0.322266 0.150391,0.766278 0,0.544272 -0.24349,0.945314 -0.236329,0.401043 -0.637371,0.666017 -0.401043,0.264975 -0.92383,0.393882 -0.522788,0.128906 -1.095706,0.128906 -1.131513,0 -1.962244,-0.43685 z M 63.33418,15.886667 q -0.315104,0 -0.53711,-0.214844 -0.222006,-0.214844 -0.222006,-0.544272 0,-0.329428 0.222006,-0.544272 0.222006,-0.222006 0.53711,-0.222006 0.322267,0 0.544273,0.222006 0.229167,0.214844 0.229167,0.544272 0,0.315105 -0.229167,0.53711 -0.222006,0.222006 -0.544273,0.222006 z m 0.572918,9.195334 h -1.174481 v -7.33335 h 1.174481 z m -8.593769,-1.059899 h -0.02865 v 4.432953 H 54.110201 V 17.748651 h 1.174482 v 1.289065 h 0.02865 q 0.866538,-1.460941 2.535162,-1.460941 1.417972,0 2.212896,0.988284 0.794923,0.981122 0.794923,2.635422 0,1.840499 -0.895184,2.950528 -0.895184,1.102867 -2.449224,1.102867 -1.425134,0 -2.198573,-1.231774 z m -0.02865,-2.957689 v 1.024091 q 0,0.909508 0.587241,1.546879 0.594402,0.63021 1.50391,0.63021 1.067059,0 1.668623,-0.816409 0.608726,-0.816408 0.608726,-2.270187 0,-1.224612 -0.565757,-1.919275 -0.565756,-0.694663 -1.532556,-0.694663 -1.02409,0 -1.647139,0.716147 -0.623048,0.708986 -0.623048,1.783207 z M 52.79249,14.812446 48.989747,25.082001 H 47.664874 L 43.940907,14.812446 h 1.339196 l 2.843105,8.142597 q 0.136068,0.393881 0.207683,0.909507 h 0.02865 q 0.05729,-0.429688 0.236328,-0.92383 l 2.900398,-8.128274 z"/>
  <path d="M 227.83195,1 V 40 H 1.0646353 V 1 H 227.83195 m 1.06464,-1 H 0 v 41 h 228.89659 z" fill="#8c8c8c" id="path6" style="stroke-width:1.03181"/>
  <rect x="13" y="11" width="9" height="9" fill="#f25022" id="rect46"/>
  <rect x="13" y="21" width="9" height="9" fill="#00a4ef" id="rect48"/>
  <rect x="23" y="11" width="9" height="9" fill="#7fba00" id="rect50"/>
  <rect x="23" y="21" width="9" height="9" fill="#ffb900" id="rect52"/>
  <metadata id="metadata896">
    <rdf:RDF>
      <cc:Work rdf:about="">
        <dc:title>MS-SymbolLockup</dc:title>
      </cc:Work>
    </rdf:RDF>
  </metadata>
</svg>