<?xml version="1.0" encoding="UTF-8" standalone="no"?>
<svg
   version="1.1"
   x="0px"
   y="0px"
   viewBox="0 0 72.1875 90"
   xml:space="preserve"
   width="165"
   id="svg66"
   sodipodi:docname="school_logo.svg"
   height="90"
   inkscape:version="1.1.2 (b8e25be8, 2022-02-05)"
   xmlns:inkscape="http://www.inkscape.org/namespaces/inkscape"
   xmlns:sodipodi="http://sodipodi.sourceforge.net/DTD/sodipodi-0.dtd"
   xmlns="http://www.w3.org/2000/svg"
   xmlns:svg="http://www.w3.org/2000/svg"><defs
   id="defs70" /><sodipodi:namedview
   id="namedview68"
   pagecolor="#ffffff"
   bordercolor="#111111"
   borderopacity="1"
   inkscape:pageshadow="0"
   inkscape:pageopacity="0"
   inkscape:pagecheckerboard="1"
   showgrid="false"
   width="150px"
   inkscape:zoom="18.870313"
   inkscape:cx="152.01126"
   inkscape:cy="16.772377"
   inkscape:window-width="2560"
   inkscape:window-height="1387"
   inkscape:window-x="0"
   inkscape:window-y="25"
   inkscape:window-maximized="1"
   inkscape:current-layer="svg66" />
<style
   type="text/css"
   id="style2">
	.st0{display:none;}
	.st1{display:inline;fill:#ED1164;}
	.st2{display:inline;}
	.st3{display:inline;fill:none;stroke:#000000;stroke-width:0.216;stroke-miterlimit:22.9256;}
	.st4{display:inline;fill:#BCBEC0;}
	.st5{fill:#FFCA05;}
	.st6{fill:#9A94C8;}
	.st7{fill:#8DD7F7;}
	.st8{fill:#EE5BA0;}
	.st9{fill:#0094D9;}
	.st10{fill:#A5CD39;}
	.st11{fill:#EC1164;}
	.st12{fill-rule:evenodd;clip-rule:evenodd;fill:#EC1164;}
	.st13{fill-rule:evenodd;clip-rule:evenodd;fill:#000002;}
	.st14{fill-rule:evenodd;clip-rule:evenodd;fill:#FFFFFF;}
	.st15{fill:none;stroke:#231F20;stroke-width:0.216;stroke-miterlimit:22.9256;}
	.st16{fill-rule:evenodd;clip-rule:evenodd;fill:#BBBDBF;}
	.st17{fill-rule:evenodd;clip-rule:evenodd;fill:#FFCA05;}
	.st18{fill-rule:evenodd;clip-rule:evenodd;fill:#9A94C8;}
	.st19{fill-rule:evenodd;clip-rule:evenodd;fill:#8DD7F7;}
	.st20{fill-rule:evenodd;clip-rule:evenodd;fill:#EE5BA0;}
	.st21{fill-rule:evenodd;clip-rule:evenodd;fill:#0094D9;}
	.st22{fill-rule:evenodd;clip-rule:evenodd;fill:#A5CD39;}
</style>
<g
   id="Layer_1"
   class="st0">
	<rect
   class="st1"
   width="47.900002"
   height="47.700001"
   id="rect4"
   x="0"
   y="0" />
	<path
   class="st2"
   d="m 71.8,6.9 c -9.4,0 -17.1,7.6 -17.1,17 0,9.4 7.7,17 17.1,17 9.4,0 17.1,-7.6 17.1,-17 -0.1,-9.3 -7.7,-17 -17.1,-17 m 7.3,9.7 2.3,-2.3 c -2.5,-2.5 -5.9,-4 -9.5,-4 -7.5,0 -13.7,6.2 -13.7,13.7 0,7.5 6.2,13.6 13.7,13.6 3.8,0 7.3,-1.5 9.7,-4.1 l -2.3,-2.4 c -1.9,2 -4.5,3.2 -7.4,3.2 -5.7,0 -10.3,-4.7 -10.3,-10.3 0,-5.6 4.7,-10.3 10.3,-10.3 2.7,0 5.3,1.2 7.2,2.9 z m 23.6,20.8 v 0 c 11.3,0 20.5,-9.2 20.5,-20.4 v -6.8 h -3.4 V 17 c 0,9.4 -7.7,17 -17.1,17.1 v 0 -23.9 H 99.3 V 37.5 Z M 43.7,3.5 v 3.4 0 c -6,0 -11,4.5 -11.8,10.2 H 28.5 C 29.4,9.4 35.8,3.5 43.7,3.5 Z m 0.8,10.3 v -3.5 c -0.3,0 -0.6,-0.1 -0.8,-0.1 -4.7,0 -8.6,3.8 -8.6,8.5 0,1.8 0.5,3.5 1.5,4.8 0.7,1.1 1.2,2.4 1.2,3.7 0,3.7 -3.1,6.8 -6.8,6.8 -3.7,0 -6.8,-3.1 -6.8,-6.8 v 0 h -3.5 v 0 c 0,5.6 4.6,10.3 10.3,10.3 5.7,0 10.3,-4.6 10.3,-10.3 0,-2 -0.6,-3.8 -1.6,-5.4 v 0 c 0,0 0,0 -0.1,0 -0.1,-0.2 -0.2,-0.3 -0.3,-0.5 -0.4,-0.8 -0.7,-1.6 -0.7,-2.6 0,-2.8 2.3,-5.1 5.1,-5.1 0.3,0.1 0.6,0.1 0.8,0.2 z M 47.9,0 H 95.8 V 47.7 H 47.9 Z m 70.1,51.9 -1.6,9.9 h 3.6 l 0.2,-1.2 H 118 l 0.5,-3.4 h 2 l 0.2,-1.1 h -2 l 0.5,-3.1 h 2.2 l 0.2,-1.1 c 0,0 -3.6,0 -3.6,0 z m -2.9,0 -1.2,7.1 c -0.1,0.4 -0.1,0.7 -0.2,1 -0.1,0.2 -0.2,0.4 -0.4,0.5 -0.1,0.1 -0.3,0.1 -0.6,0.2 -0.3,0 -0.6,-0.1 -0.9,-0.3 l -0.2,1.3 c 0.3,0.2 0.6,0.3 1.1,0.3 0.6,0 1.1,-0.2 1.5,-0.5 0.4,-0.4 0.7,-1.1 0.8,-2.1 l 1.2,-7.5 z m -8.9,9.9 h 1.3 c 0.1,-0.9 0.3,-1.8 0.4,-2.6 0.1,-0.9 0.2,-1.7 0.3,-2.5 0.1,-0.9 0.2,-1.7 0.2,-2.5 v 0 l 1.1,7.7 h 1.2 L 112.3,52 H 111 c -0.1,0.9 -0.3,1.7 -0.4,2.3 -0.1,0.7 -0.2,1.2 -0.2,1.7 0,0.5 -0.1,1 -0.1,1.5 0,0.5 -0.1,1.2 -0.1,2 v 0 L 109,52 h -1.3 z m -3,-9.9 -1.6,9.9 h 3.6 l 0.2,-1.2 h -2.2 l 0.5,-3.4 h 2 l 0.2,-1.1 h -2 l 0.5,-3.1 h 2.2 l 0.2,-1.1 c 0,0 -3.6,0 -3.6,0 z m -4.4,0 -1.6,9.9 h 3.6 l 0.2,-1.2 h -2.2 l 1.4,-8.8 z m -4.6,0 -1.6,9.9 h 3.6 l 0.2,-1.2 h -2.2 l 0.5,-3.4 h 2 l 0.2,-1.1 h -2 L 95.4,53 h 2.2 l 0.2,-1.1 c 0,0 -3.6,0 -3.6,0 z m -5.5,9.9 h 1.1 l 3.5,-9.9 h -1.2 c -0.1,0.3 -0.3,0.8 -0.5,1.6 -0.3,0.8 -0.5,1.5 -0.7,2.2 -0.2,0.7 -0.4,1.3 -0.6,1.9 -0.2,0.6 -0.3,1.2 -0.5,1.7 v 0 l 0.1,-7.5 H 88.6 Z M 81.6,56.3 82.1,53 c 0.4,0 0.7,0.1 0.8,0.2 0.2,0.1 0.3,0.4 0.3,0.8 0,0.6 -0.1,1.2 -0.4,1.6 -0.2,0.4 -0.6,0.7 -1.2,0.7 z m -2.3,5.5 h 1.3 l 0.8,-4.9 v 0 l 1,4.9 h 1.4 l -1,-4.8 c 0.4,-0.1 0.8,-0.3 1.1,-0.6 0.3,-0.4 0.5,-0.8 0.6,-1.3 0.1,-0.5 0.2,-1 0.2,-1.4 0,-0.6 -0.1,-1.1 -0.4,-1.3 C 84,52.1 83.5,52 82.9,52 h -1.8 z m -3,-9.9 -1.6,9.9 h 3.6 l 0.2,-1.2 h -2.2 l 0.5,-3.4 h 2 L 79,56.1 H 77 L 77.5,53 h 2.2 l 0.2,-1.1 c 0,0 -3.6,0 -3.6,0 z m -5.1,0 L 71,53 h 1.6 l -1.4,8.8 h 1.3 L 73.9,53 h 1.5 l 0.2,-1.1 z m -6.9,9.9 h 1.3 c 0.1,-0.9 0.3,-1.8 0.4,-2.6 0.1,-0.9 0.2,-1.7 0.3,-2.5 0.1,-0.9 0.2,-1.7 0.2,-2.5 v 0 l 1.1,7.7 h 1.2 L 70.4,52 h -1.3 c -0.1,0.9 -0.3,1.7 -0.4,2.3 -0.1,0.7 -0.2,1.2 -0.2,1.7 0,0.5 -0.1,1 -0.1,1.5 0,0.5 -0.1,1.2 -0.1,2 v 0 L 67.1,52 h -1.3 z m -3.1,-9.9 -1.6,9.9 h 3.6 l 0.2,-1.2 h -2.2 l 0.5,-3.4 h 2 l 0.2,-1.1 h -2 L 62.4,53 h 2.2 l 0.2,-1.1 c 0,0 -3.6,0 -3.6,0 z m -1,0.1 c -0.4,-0.2 -0.8,-0.3 -1.2,-0.3 -0.4,0 -0.8,0.1 -1.1,0.3 -0.4,0.2 -0.7,0.4 -0.9,0.6 -0.3,0.3 -0.6,0.8 -0.9,1.5 -0.3,0.7 -0.5,1.4 -0.7,2.3 -0.2,0.8 -0.2,1.6 -0.3,2.4 0,1 0.2,1.7 0.4,2.1 0.2,0.3 0.4,0.6 0.8,0.7 0.4,0.2 0.8,0.3 1.2,0.3 0.5,0 0.8,-0.1 1.1,-0.3 l 0.2,-1.2 c -0.2,0.1 -0.5,0.2 -0.8,0.2 -0.6,0 -1,-0.2 -1.1,-0.6 -0.2,-0.4 -0.3,-0.9 -0.3,-1.6 0,-0.6 0.1,-1.1 0.2,-1.8 0.1,-0.6 0.3,-1.1 0.4,-1.6 0.1,-0.5 0.3,-0.8 0.4,-1 0.2,-0.3 0.4,-0.6 0.8,-0.8 0.3,-0.2 0.6,-0.3 0.9,-0.3 0.3,0 0.6,0.1 0.8,0.3 z M 52,51.9 h -1.3 l -1.6,9.9 h 1.3 z m -6.3,4.8 0.7,-4.8 h -1.3 l -1.6,9.9 h 1.3 z m 0,0 1.1,5.1 h 1.5 L 47,56.7 49.7,51.9 h -1.4 z m -6.8,3.4 -0.2,1.3 c 0.3,0.3 0.8,0.5 1.4,0.5 0.6,0 1,-0.1 1.5,-0.4 0.4,-0.3 0.8,-0.7 1,-1.2 0.2,-0.5 0.3,-1 0.3,-1.6 0,-0.4 -0.1,-0.8 -0.3,-1.2 -0.2,-0.4 -0.4,-0.8 -0.8,-1.3 -0.4,-0.5 -0.6,-0.8 -0.8,-1.1 -0.1,-0.3 -0.2,-0.5 -0.2,-0.8 0.1,-0.4 0.3,-0.8 0.5,-1 0.3,-0.3 0.6,-0.4 0.9,-0.4 0.4,0 0.8,0.1 1.1,0.4 l 0.2,-1.4 c -0.4,-0.2 -0.9,-0.3 -1.3,-0.3 -0.5,0 -0.9,0.1 -1.4,0.4 -0.4,0.3 -0.7,0.6 -1,1.1 -0.3,0.5 -0.4,1 -0.4,1.6 0,0.5 0.1,0.8 0.3,1.2 0.2,0.3 0.4,0.7 0.8,1.1 0.3,0.4 0.6,0.7 0.8,1 0.2,0.3 0.3,0.6 0.3,1 0,0.4 -0.2,0.8 -0.4,1.1 -0.3,0.3 -0.6,0.4 -1,0.5 -0.5,0 -0.9,-0.2 -1.3,-0.5 z m -2.8,-8.2 -1.6,9.9 h 3.6 l 0.2,-1.2 H 36 l 1.4,-8.8 z m -6.2,7 c 0,-0.6 0.1,-1.2 0.2,-1.8 0.1,-0.6 0.2,-1.2 0.3,-1.9 0.1,-0.6 0.3,-1.2 0.6,-1.6 0.3,-0.4 0.5,-0.7 0.9,-0.7 0.3,0 0.6,0.1 0.7,0.3 0.1,0.2 0.2,0.6 0.2,1.1 0,0.1 0,0.2 0,0.4 0,0.2 0,0.3 0,0.4 -0.1,0.7 -0.1,1.4 -0.3,2.3 -0.1,0.9 -0.4,1.6 -0.6,2.3 -0.3,0.7 -0.6,1 -1,1 -0.6,0 -0.9,-0.4 -0.9,-1.3 -0.1,-0.2 -0.1,-0.3 -0.1,-0.5 z M 28.5,59 c 0,0.1 0,0.2 0,0.4 0,0.5 0.1,0.9 0.2,1.3 0.1,0.4 0.3,0.7 0.6,0.9 0.3,0.3 0.7,0.4 1.1,0.4 0.6,0 1.2,-0.2 1.6,-0.6 0.4,-0.4 0.8,-0.9 1.1,-1.6 0.3,-0.7 0.5,-1.4 0.6,-2.3 0.1,-0.9 0.3,-1.8 0.3,-2.9 v -0.1 c 0,-0.1 0,-0.1 0,-0.2 C 34,53.6 33.8,53 33.5,52.5 33.2,52 32.7,51.8 32,51.8 c -0.3,0 -0.5,0 -0.7,0.1 -0.7,0.2 -1.3,0.6 -1.7,1.4 -0.4,0.8 -0.7,1.7 -0.9,2.6 0,0.9 -0.1,1.9 -0.2,3.1 z m 0.1,-9.4 -0.6,-0.5 -1.1,1.1 -0.9,-1.1 -0.7,0.5 1.3,1.8 z m -5,10.5 -0.2,1.3 c 0.3,0.3 0.8,0.5 1.4,0.5 0.6,0 1,-0.1 1.5,-0.4 0.4,-0.3 0.8,-0.7 1,-1.2 0.2,-0.5 0.3,-1 0.3,-1.6 0,-0.4 -0.1,-0.8 -0.3,-1.2 -0.2,-0.4 -0.4,-0.8 -0.8,-1.3 -0.4,-0.5 -0.6,-0.8 -0.8,-1.1 -0.1,-0.3 -0.2,-0.5 -0.2,-0.8 0.1,-0.4 0.3,-0.8 0.5,-1 0.3,-0.3 0.6,-0.4 0.9,-0.4 0.4,0 0.8,0.1 1.1,0.4 l 0.2,-1.4 c -0.4,-0.2 -0.9,-0.3 -1.3,-0.3 -0.5,0 -0.9,0.1 -1.4,0.4 -0.4,0.3 -0.7,0.6 -1,1.1 -0.3,0.5 -0.4,1 -0.4,1.6 0,0.5 0.1,0.8 0.3,1.2 0.2,0.3 0.4,0.7 0.8,1.1 0.3,0.4 0.6,0.7 0.8,1 0.2,0.3 0.3,0.6 0.3,1 0,0.4 -0.2,0.8 -0.4,1.1 -0.3,0.3 -0.6,0.4 -1,0.5 -0.5,0 -1,-0.2 -1.3,-0.5 z"
   id="path6" />
	<path
   class="st2"
   d="m 79.1,16.6 2.3,-2.3 c -2.5,-2.5 -5.9,-4 -9.5,-4 -7.5,0 -13.7,6.2 -13.7,13.7 0,7.5 6.2,13.6 13.7,13.6 3.8,0 7.3,-1.5 9.7,-4.1 l -2.3,-2.4 c -1.9,2 -4.5,3.2 -7.4,3.2 -5.7,0 -10.3,-4.7 -10.3,-10.3 0,-5.6 4.7,-10.3 10.3,-10.3 2.7,0 5.3,1.2 7.2,2.9 z"
   id="path8" />
	<path
   class="st3"
   d="m 71.8,6.9 c -9.4,0 -17.1,7.6 -17.1,17 0,9.4 7.7,17 17.1,17 9.4,0 17.1,-7.6 17.1,-17 -0.1,-9.3 -7.7,-17 -17.1,-17 z m 7.3,9.7 2.3,-2.3 c -2.5,-2.5 -5.9,-4 -9.5,-4 -7.5,0 -13.7,6.2 -13.7,13.7 0,7.5 6.2,13.6 13.7,13.6 3.8,0 7.3,-1.5 9.7,-4.1 l -2.3,-2.4 c -1.9,2 -4.5,3.2 -7.4,3.2 -5.7,0 -10.3,-4.7 -10.3,-10.3 0,-5.6 4.7,-10.3 10.3,-10.3 2.7,0 5.3,1.2 7.2,2.9 z"
   id="path10" />
	<path
   class="st4"
   d="m 202.1,58.1 -0.6,3.6 c -0.2,1.2 0.5,1.9 1.5,1.9 1.2,0 2,-0.7 2.2,-1.9 l 0.6,-3.6 c 0.2,-1.1 -0.5,-1.8 -1.5,-1.8 -1.2,0.1 -2.1,0.8 -2.2,1.8 m 0.7,3.8 0.6,-3.8 c 0.1,-0.3 0.3,-0.5 0.6,-0.5 0.3,0 0.5,0.2 0.5,0.5 l -0.6,3.8 c -0.1,0.4 -0.3,0.6 -0.7,0.6 -0.3,0 -0.5,-0.3 -0.4,-0.6 z m 5.6,1 -0.1,0.5 h 1.3 l 1.6,-9.4 h -1.3 l -0.5,3 c -0.3,-0.4 -0.7,-0.7 -1,-0.7 -0.8,0 -1.4,0.6 -1.5,1.7 l -0.6,3.9 c -0.2,1 0.2,1.5 0.9,1.5 0.4,0.2 0.8,0 1.2,-0.5 z m 0.1,-0.7 c -0.2,0.2 -0.4,0.3 -0.7,0.3 -0.3,0 -0.4,-0.2 -0.4,-0.6 l 0.6,-3.6 c 0.1,-0.5 0.3,-0.7 0.6,-0.7 0.2,0 0.3,0.1 0.5,0.3 z"
   id="path12" />
	<path
   class="st4"
   d="m 216.8,70.8 c -0.9,0 -1,-0.6 -0.7,-2.1 0.2,-1.4 0.5,-2.1 1.4,-2.1 0.8,0 0.9,0.6 0.7,2.2 -0.3,1.4 -0.7,2 -1.4,2 m -1.2,7.2 c -1,0 -1.1,-0.9 -0.8,-2.6 0.2,-1.5 0.6,-2.2 1.6,-2.2 0.9,0 0.9,0.8 0.7,2.4 -0.3,1.6 -0.6,2.4 -1.5,2.4 z m -0.8,-6.1 c -1.1,0.6 -1.8,1.8 -2.1,3.7 -0.5,2.9 0.4,4.4 2.5,4.4 2.1,0 3.5,-1.5 4,-4.3 0.3,-2.1 0,-3.4 -0.8,-3.8 1,-0.7 1.5,-1.7 1.8,-3.4 0.4,-2.5 -0.4,-3.8 -2.4,-3.8 -2,0 -3.3,1.3 -3.7,3.8 -0.3,1.8 -0.1,2.8 0.7,3.4 z m -9.9,3.7 -0.1,0.4 c -0.4,2.6 0.4,4 2.4,4 2,0 3.5,-1.3 3.8,-3.6 l 0.6,-3.7 c 0.3,-2.1 -0.4,-3.1 -1.7,-3.1 -0.7,0 -1.4,0.3 -2.2,1 l 0.8,-3.4 h 3.8 l 0.3,-2.1 h -5.5 l -1.5,7.7 1.8,0.1 c 0.4,-0.8 0.9,-1.2 1.4,-1.2 0.7,0 0.9,0.4 0.8,1.2 l -0.6,3.7 c -0.2,1 -0.6,1.5 -1.3,1.5 -0.8,0 -1.1,-0.6 -0.9,-1.7 l 0.1,-0.7 h -2 z m -3.2,-4.3 c -0.4,0.6 -0.8,0.9 -1.4,0.9 -0.8,0 -1,-0.6 -0.8,-1.7 l 0.3,-2.1 c 0.2,-1 0.7,-1.5 1.4,-1.5 0.7,0 1.1,0.5 1,1.3 z m -5.4,5 c -0.4,2.3 0.7,3.8 2.7,3.8 2.2,0 3.7,-1.4 4.1,-3.7 l 1.3,-7.5 c 0.4,-2.7 -0.5,-4.1 -2.7,-4.1 -2.3,0 -3.8,1.6 -4.3,4.7 -0.5,3 0.2,4.5 2.1,4.5 0.7,0 1.3,-0.3 1.9,-0.8 l -0.6,3.6 c -0.1,0.7 -0.7,1.2 -1.4,1.2 -0.7,0 -1.1,-0.5 -1,-1.2 l 0.2,-1 h -2.2 z m -4.9,-7.9 h 1.8 l -1.9,11.4 h 2.2 L 196,65.2 h -1.5 c -0.7,0.8 -1.6,1.4 -2.8,1.8 z m 13.8,-14.5 c 9.6,0 17.4,7.8 17.4,17.3 0,9.6 -7.8,17.3 -17.4,17.3 -9.6,0 -17.4,-7.8 -17.4,-17.3 0,-9.6 7.8,-17.3 17.4,-17.3 z m 0,-1.5 c 10.4,0 18.8,8.4 18.8,18.8 0,10.4 -8.4,18.8 -18.8,18.8 -10.4,0 -18.8,-8.4 -18.8,-18.8 -0.1,-10.4 8.3,-18.8 18.8,-18.8 z"
   id="path14" />
	<path
   class="st4"
   d="m 125,80.3 h 7.3 l 0.4,-2.8 h -4.3 l 5.9,-10.3 0.4,-2.6 h -7 l -0.4,2.7 h 4.1 l -6.1,10.4 z m 9.4,0 h 2.8 l 1.9,-11.9 c 0.7,-0.8 1.5,-1.2 1.8,-1.2 0.6,0 0.7,0.4 0.5,1.2 l -1.8,11.9 h 2.7 l 2,-13.2 c 0.3,-1.9 -0.2,-2.8 -1.5,-2.8 -1,0 -2.2,0.6 -3.4,1.9 l 0.3,-1.7 h -2.8 z m 15.5,-1.8 c -0.1,0.7 -0.1,1.3 0,1.8 h 2.7 c 0,-0.7 0.1,-2.2 0.4,-4.5 l 1,-6.7 c 0.5,-3.3 -0.4,-4.9 -2.9,-4.9 -2.3,0 -4.4,1.8 -4.8,4.5 0,0.2 0,0.3 0,0.4 h 2.8 l 0.1,-0.9 c 0.1,-0.8 0.7,-1.3 1.4,-1.3 0.6,0 0.9,0.5 0.7,1.4 L 151,70 c -4,2.1 -6,3.8 -6.5,7 -0.4,2.3 0.4,3.5 1.9,3.5 1.1,0 2.4,-0.6 3.5,-2 z m 0.2,-2.1 c -0.6,0.9 -1.4,1.4 -1.9,1.4 -0.5,0 -0.8,-0.5 -0.6,-1.5 0.3,-1.8 1.2,-2.7 3.2,-4 z m 4.7,3.9 h 2.8 l 1.9,-11.9 c 0.7,-0.8 1.5,-1.2 1.8,-1.2 0.6,0 0.7,0.4 0.5,1.2 L 160,80.3 h 2.7 l 2,-13.2 c 0.3,-1.9 -0.2,-2.8 -1.5,-2.8 -1,0 -2.2,0.6 -3.4,1.9 l 0.3,-1.7 h -2.8 z M 169.7,69.4 H 167 l -1.8,12.1 c -0.1,0.5 -0.6,1.1 -1.4,1.1 -0.2,0 -0.5,0 -0.8,-0.1 l -0.4,2.5 c 0.5,0.2 1,0.2 1.5,0.2 2.1,0 3.4,-1.2 3.8,-3.7 z m -2.4,-1.8 h 2.7 l 0.5,-2.9 h -2.7 z m 8.6,10.9 c -0.1,0.7 -0.1,1.3 0,1.8 h 2.7 c 0,-0.7 0.1,-2.2 0.4,-4.5 l 1,-6.7 c 0.5,-3.3 -0.4,-4.9 -2.9,-4.9 -2.3,0 -4.4,1.8 -4.8,4.5 0,0.2 0,0.3 0,0.4 h 2.8 l 0.1,-0.9 c 0.1,-0.8 0.7,-1.3 1.5,-1.3 0.6,0 0.9,0.5 0.7,1.4 l -0.3,1.7 c -4,2.1 -6,3.8 -6.5,7 -0.4,2.3 0.4,3.5 1.9,3.5 1,0 2.3,-0.6 3.4,-2 z m 0.2,-2.1 c -0.6,0.9 -1.4,1.4 -1.9,1.4 -0.5,0 -0.8,-0.5 -0.6,-1.5 0.3,-1.8 1.2,-2.7 3.2,-4 z"
   id="path16" />
	<g
   class="st2"
   id="g32">
		<path
   class="st5"
   d="M 94.3,80.4 H 97 L 98.6,69.5 H 95.8 Z M 96.2,67.6 H 99 l 0.5,-2.9 h -2.8 z"
   id="path18" />
		<path
   class="st6"
   d="m 114.8,78.6 c -0.1,0.6 -0.1,1.2 0,1.8 h 2.7 c 0,-1.5 0.2,-3 0.5,-4.5 l 1,-6.7 c 0.5,-3.3 -0.4,-4.9 -2.9,-4.9 -2.5,0.1 -4.5,2 -4.8,4.5 0,0.2 0,0.3 0,0.4 h 2.8 l 0.1,-0.9 c 0.1,-0.8 0.7,-1.3 1.4,-1.3 0.6,0 0.8,0.5 0.7,1.5 l -0.3,1.7 c -4,2.1 -6,3.8 -6.5,7 -0.3,2.3 0.4,3.5 1.9,3.5 1.4,-0.2 2.7,-1 3.4,-2.1 m 0.3,-2.1 c -0.4,0.8 -1.1,1.3 -2,1.5 -0.5,0 -0.8,-0.5 -0.6,-1.6 0.3,-1.7 1.2,-2.7 3.2,-4 z"
   id="path20" />
		<path
   class="st7"
   d="m 100.1,76 c -0.5,3.1 0.9,4.9 3.2,4.9 2.7,0 4.3,-1.6 4.8,-4.9 l 0.2,-1.3 h -2.8 l -0.2,1.2 c -0.2,1.5 -0.4,2.2 -1.6,2.2 -1,0 -1,-0.7 -0.8,-2.2 l 1.1,-7 c 0.2,-1.2 0.6,-1.8 1.5,-1.8 0.9,0 1.1,0.6 0.9,1.8 l -0.2,1.3 h 2.8 l 0.2,-1.2 c 0.5,-3 -0.9,-4.6 -3.2,-4.6 -2.3,0 -4.4,1.7 -4.9,4.8 z"
   id="path22" />
		<path
   class="st8"
   d="m 86.9,80.4 h 2.8 l 1.6,-10.3 c 0.1,-1.4 1.3,-2.5 2.7,-2.5 0.3,0 0.6,0.1 0.9,0.2 l 0.5,-3.3 H 95 c -1.2,0 -2.3,0.8 -3.3,2.3 L 92,64.7 h -2.8 z"
   id="path24" />
		<polygon
   class="st9"
   points="82.3,74.4 82.1,64.7 79.5,64.7 80.2,80.4 82.7,80.4 88,64.7 85.3,64.7 82.4,74.4 "
   id="polygon26" />
		<path
   class="st10"
   d="m 73.4,78.6 c -0.1,0.6 -0.1,1.2 0,1.8 h 2.7 c 0,-1.5 0.2,-3 0.4,-4.5 l 1,-6.7 c 0.5,-3.3 -0.4,-4.9 -2.9,-4.9 -2.5,0.1 -4.6,2 -4.8,4.5 0,0.2 0,0.3 0,0.4 h 2.8 l 0.1,-0.9 c 0.1,-0.8 0.7,-1.3 1.4,-1.3 0.6,0 0.9,0.5 0.7,1.5 l -0.3,1.7 c -4,2.1 -6,3.8 -6.5,7 -0.3,2.3 0.4,3.5 1.8,3.5 1.6,-0.2 2.9,-1 3.6,-2.1 m 0.3,-2.1 c -0.4,0.8 -1.1,1.3 -1.9,1.5 -0.5,0 -0.8,-0.5 -0.6,-1.6 0.3,-1.7 1.1,-2.7 3.2,-4 z"
   id="path28" />
		<path
   class="st11"
   d="m 52.9,80.4 h 2.8 l 1.8,-11.9 c 0.5,-0.6 1.1,-1 1.9,-1.2 0.6,0 0.7,0.4 0.6,1.2 l -1.8,11.9 h 2.5 l 1.9,-11.9 c 0.4,-0.6 1.1,-1 1.8,-1.2 0.6,0 0.7,0.4 0.5,1.2 L 63,80.4 h 2.8 L 67.9,67.1 C 68.2,65.3 67.6,64.4 66.3,64.4 65,64.5 63.8,65.2 63,66.2 62.9,65 62.4,64.4 61.3,64.4 60,64.5 58.8,65.2 57.9,66.2 l 0.3,-1.6 h -2.8 z"
   id="path30" />
	</g>
</g>
<g
   id="Layer_2"
   transform="translate(-46.164776,0.19493376)">
	<g
   id="g63">
		<rect
   x="0"
   y="0"
   class="st12"
   width="55.299999"
   height="55.299999"
   id="rect35" />
		<path
   class="st13"
   d="m 82.9,8.1 c -10.8,0 -19.7,8.8 -19.7,19.7 0,10.9 8.8,19.7 19.7,19.7 10.9,0 19.7,-8.8 19.7,-19.7 0,-10.9 -8.8,-19.7 -19.7,-19.7 m 8.5,11.2 2.7,-2.7 C 91.3,13.8 87.3,12 83.1,12 c -8.7,0 -15.8,7.2 -15.8,15.8 0,8.7 7.2,15.8 15.8,15.8 4.4,0 8.4,-1.8 11.2,-4.8 L 91.6,36 c -2.2,2.3 -5.2,3.7 -8.5,3.7 -6.5,0 -11.9,-5.4 -11.9,-11.9 0,-6.5 5.4,-11.9 11.9,-11.9 3.1,0 6.1,1.3 8.3,3.4 z m 27.2,24.1 v 0 c 13.1,0 23.7,-10.6 23.7,-23.7 v -7.9 h -3.9 v 7.9 c 0,10.9 -8.8,19.7 -19.7,19.8 v 0 -27.6 h -3.9 v 31.7 h 3.9 V 43.4 Z M 50.5,4.1 V 8 8 C 43.6,8 37.8,13.2 36.9,19.8 H 33 C 34,10.9 41.4,4 50.5,4.1 Z m 1,11.9 v -4 c -0.3,0 -0.7,-0.1 -1,-0.1 -5.5,0 -9.9,4.4 -9.9,9.9 0,2.1 0.6,4 1.7,5.6 0.8,1.3 1.3,2.7 1.3,4.3 0,4.3 -3.5,7.8 -7.8,7.8 -4.3,0 -7.8,-3.5 -7.8,-7.8 0,0 0,0 0,0 h -4 c 0,0 0,0 0,0 0,6.5 5.3,11.9 11.9,11.9 6.5,0 11.9,-5.3 11.9,-11.9 0,-2.3 -0.7,-4.4 -1.9,-6.2 v 0 c 0,0 0,0 -0.1,0 -0.1,-0.2 -0.2,-0.4 -0.4,-0.5 -0.5,-0.9 -0.8,-1.9 -0.8,-3 0,-3.3 2.6,-5.9 5.9,-5.9 0.3,-0.2 0.7,-0.2 1,-0.1 z M 55.3,0 h 55.3 V 55.3 H 55.3 Z m 81,60.1 -1.8,11.5 h 4.1 l 0.2,-1.3 h -2.6 l 0.6,-3.9 h 2.3 l 0.2,-1.3 H 137 l 0.6,-3.6 h 2.6 l 0.2,-1.3 h -4.1 z m -3.4,0 -1.3,8.2 c -0.1,0.5 -0.1,0.8 -0.2,1.1 -0.1,0.3 -0.2,0.5 -0.4,0.6 -0.2,0.1 -0.4,0.2 -0.7,0.2 -0.4,0 -0.7,-0.2 -1,-0.4 l -0.2,1.5 c 0.3,0.2 0.7,0.3 1.3,0.3 0.7,0 1.3,-0.2 1.7,-0.6 0.5,-0.5 0.8,-1.3 1,-2.4 l 1.4,-8.6 h -1.6 z m -10.2,11.5 h 1.5 c 0.2,-1 0.3,-2 0.5,-3 0.1,-1 0.3,-2 0.4,-2.9 0.1,-1 0.2,-1.9 0.2,-2.9 v 0 l 1.3,8.9 h 1.4 l 1.8,-11.5 h -1.5 c -0.2,1 -0.3,1.9 -0.4,2.7 -0.1,0.8 -0.2,1.4 -0.2,2 0,0.6 -0.1,1.1 -0.2,1.7 0,0.6 -0.1,1.4 -0.2,2.3 v 0 L 126,60.2 h -1.4 z m -3.5,-11.5 -1.8,11.5 h 4.1 l 0.2,-1.3 h -2.6 l 0.6,-3.9 h 2.3 l 0.2,-1.3 h -2.3 l 0.6,-3.6 h 2.6 l 0.2,-1.3 h -4.1 z m -5.1,0 -1.8,11.5 h 4.1 l 0.2,-1.3 H 114 l 1.6,-10.2 z m -5.3,0 -1.8,11.5 h 4.1 l 0.2,-1.3 h -2.6 l 0.6,-3.9 h 2.3 l 0.2,-1.3 h -2.3 l 0.6,-3.6 h 2.6 l 0.2,-1.3 h -4.1 z m -6.3,11.5 h 1.2 l 4.1,-11.5 h -1.4 c -0.1,0.3 -0.3,1 -0.6,1.9 -0.3,0.9 -0.6,1.8 -0.9,2.6 -0.3,0.8 -0.5,1.5 -0.7,2.2 -0.2,0.7 -0.4,1.4 -0.6,2 v 0 l 0.1,-8.6 h -1.5 z m -8.3,-6.4 0.6,-3.8 c 0.4,0 0.8,0.1 1,0.2 0.2,0.1 0.3,0.4 0.3,0.9 0,0.7 -0.1,1.4 -0.4,1.9 -0.3,0.5 -0.8,0.8 -1.5,0.8 z m -2.5,6.4 h 1.5 L 94.1,66 v 0 l 1.2,5.6 h 1.6 L 95.6,66 c 0.5,-0.1 0.9,-0.3 1.2,-0.7 0.3,-0.4 0.5,-0.9 0.7,-1.5 0.1,-0.6 0.2,-1.1 0.2,-1.6 0,-0.7 -0.2,-1.2 -0.5,-1.6 -0.4,-0.3 -0.9,-0.5 -1.6,-0.5 H 93.5 Z M 88.2,60.1 86.4,71.6 h 4.1 l 0.2,-1.3 h -2.6 l 0.6,-3.9 H 91 l 0.2,-1.3 h -2.3 l 0.6,-3.6 h 2.6 l 0.2,-1.3 h -4.1 z m -5.9,0 -0.2,1.3 h 1.8 l -1.6,10.2 h 1.6 l 1.6,-10.2 h 1.7 l 0.2,-1.3 z m -8.1,11.5 h 1.5 c 0.2,-1 0.3,-2 0.5,-3 0.1,-1 0.3,-2 0.4,-2.9 0.1,-1 0.2,-1.9 0.2,-2.9 v 0 l 1.3,8.9 h 1.4 l 1.8,-11.5 h -1.5 c -0.2,1 -0.3,1.9 -0.4,2.7 -0.1,0.8 -0.2,1.4 -0.2,2 0,0.6 -0.1,1.1 -0.2,1.7 0,0.6 -0.1,1.4 -0.2,2.3 v 0 L 77.5,60.2 H 76.1 Z M 70.7,60.1 68.9,71.6 H 73 l 0.2,-1.3 h -2.6 l 0.6,-3.9 h 2.3 l 0.2,-1.3 H 71.4 L 72,61.5 h 2.6 l 0.2,-1.3 h -4.1 z m -1.1,0.2 C 69.2,60.1 68.7,60 68.2,60 c -0.4,0 -0.9,0.1 -1.3,0.3 -0.4,0.2 -0.8,0.4 -1.1,0.7 -0.4,0.4 -0.7,1 -1.1,1.8 -0.3,0.8 -0.6,1.7 -0.8,2.6 -0.2,1 -0.3,1.9 -0.3,2.7 0,1.1 0.2,2 0.4,2.5 0.2,0.4 0.5,0.6 0.9,0.9 0.4,0.2 0.9,0.3 1.4,0.3 0.5,0 1,-0.1 1.3,-0.3 L 68,70 c -0.3,0.2 -0.6,0.2 -0.9,0.3 -0.7,0 -1.1,-0.3 -1.3,-0.7 -0.2,-0.5 -0.3,-1.1 -0.4,-1.9 0,-0.7 0.1,-1.3 0.2,-2 0.1,-0.7 0.3,-1.3 0.5,-1.9 0.2,-0.6 0.3,-0.9 0.5,-1.2 0.2,-0.4 0.5,-0.7 0.9,-0.9 0.4,-0.2 0.7,-0.3 1,-0.3 0.4,0 0.7,0.1 1,0.3 z m -9.5,-0.2 h -1.5 l -1.8,11.5 h 1.5 z m -7.3,5.6 0.9,-5.6 h -1.5 l -1.8,11.5 h 1.5 z m 0,0 1.2,5.9 h 1.8 l -1.5,-5.9 3.2,-5.6 h -1.6 z m -7.8,3.9 -0.2,1.6 c 0.4,0.4 0.9,0.5 1.6,0.5 0.6,0 1.2,-0.2 1.7,-0.5 0.5,-0.4 0.9,-0.8 1.1,-1.4 0.3,-0.6 0.4,-1.2 0.4,-1.8 0,-0.5 -0.1,-1 -0.3,-1.4 -0.2,-0.4 -0.5,-0.9 -0.9,-1.4 -0.4,-0.5 -0.7,-0.9 -0.9,-1.2 -0.2,-0.3 -0.3,-0.6 -0.3,-0.9 0.1,-0.5 0.3,-0.9 0.6,-1.2 0.3,-0.3 0.7,-0.4 1,-0.4 0.5,0 0.9,0.2 1.2,0.5 l 0.3,-1.6 c -0.5,-0.3 -1,-0.4 -1.5,-0.4 -0.6,0 -1.1,0.2 -1.6,0.4 -0.5,0.3 -0.9,0.7 -1.1,1.3 -0.3,0.5 -0.4,1.2 -0.4,1.9 0,0.5 0.1,1 0.3,1.4 0.2,0.4 0.5,0.8 0.9,1.2 0.4,0.5 0.7,0.9 0.9,1.2 0.2,0.3 0.3,0.7 0.3,1.2 0,0.5 -0.2,0.9 -0.5,1.3 -0.3,0.4 -0.7,0.5 -1.1,0.5 C 45.9,70.2 45.4,70 45,69.6 Z M 41.7,60.1 39.9,71.6 H 44 l 0.2,-1.3 h -2.6 l 1.6,-10.2 z m -7.1,8.2 c 0,-0.7 0.1,-1.4 0.2,-2.1 0.1,-0.7 0.2,-1.4 0.4,-2.2 0.2,-0.7 0.4,-1.4 0.7,-1.9 0.3,-0.5 0.6,-0.8 1,-0.8 0.4,0 0.6,0.1 0.8,0.4 0.1,0.3 0.2,0.7 0.2,1.3 0,0.1 0,0.2 0,0.4 0,0.2 0,0.3 0,0.4 -0.1,0.8 -0.2,1.7 -0.3,2.7 -0.2,1 -0.4,1.9 -0.7,2.6 -0.3,0.8 -0.7,1.1 -1.2,1.2 -0.7,0 -1,-0.5 -1.1,-1.5 0,-0.2 0,-0.3 0,-0.5 z m -1.7,0 c 0,0.1 0,0.2 0,0.4 0,0.5 0.1,1 0.2,1.5 0.2,0.5 0.4,0.8 0.7,1.1 0.4,0.3 0.8,0.4 1.3,0.4 0.7,0 1.4,-0.2 1.9,-0.7 0.5,-0.4 0.9,-1.1 1.3,-1.8 0.3,-0.8 0.6,-1.7 0.7,-2.7 0.2,-1 0.3,-2.1 0.4,-3.3 0,0 0,-0.1 0,-0.2 0,-0.1 0,-0.1 0,-0.2 0,-0.8 -0.2,-1.5 -0.5,-2.1 C 38.6,60.2 38,60 37.2,60 c -0.3,0 -0.6,0 -0.8,0.1 -0.8,0.2 -1.5,0.7 -2,1.7 -0.5,0.9 -0.8,1.9 -1,3 -0.2,0.9 -0.3,2.2 -0.5,3.5 z m 0.2,-10.8 -0.7,-0.6 -1.3,1.3 -1,-1.3 -0.8,0.6 1.5,2.1 z M 27.3,69.6 27,71.2 c 0.4,0.4 0.9,0.5 1.6,0.5 0.6,0 1.2,-0.2 1.7,-0.5 0.5,-0.4 0.9,-0.8 1.1,-1.4 0.3,-0.6 0.4,-1.2 0.4,-1.8 0,-0.5 -0.1,-1 -0.3,-1.4 -0.2,-0.4 -0.5,-0.9 -0.9,-1.4 -0.4,-0.5 -0.7,-0.9 -0.9,-1.2 -0.2,-0.3 -0.3,-0.6 -0.3,-0.9 0.1,-0.5 0.3,-0.9 0.6,-1.2 0.3,-0.3 0.7,-0.4 1,-0.4 0.5,0 0.9,0.2 1.2,0.5 l 0.3,-1.6 C 32,60.1 31.5,60 31,60 c -0.6,0 -1.1,0.2 -1.6,0.4 -0.5,0.3 -0.9,0.7 -1.1,1.3 -0.3,0.5 -0.4,1.2 -0.4,1.9 0,0.5 0.1,1 0.3,1.4 0.2,0.4 0.5,0.8 0.9,1.2 0.4,0.5 0.7,0.9 0.9,1.2 0.2,0.3 0.3,0.7 0.3,1.2 0,0.5 -0.2,0.9 -0.5,1.3 -0.3,0.4 -0.7,0.5 -1.1,0.5 -0.5,-0.2 -1,-0.4 -1.4,-0.8 z"
   id="path37" />
		<path
   class="st14"
   d="m 82.9,8.1 c -10.8,0 -19.7,8.8 -19.7,19.7 0,10.9 8.8,19.7 19.7,19.7 10.9,0 19.7,-8.8 19.7,-19.7 0,-10.9 -8.8,-19.7 -19.7,-19.7 z m 8.5,11.2 2.7,-2.7 C 91.3,13.8 87.3,12 83.1,12 c -8.7,0 -15.8,7.2 -15.8,15.8 0,8.7 7.2,15.8 15.8,15.8 4.4,0 8.4,-1.8 11.2,-4.8 L 91.6,36 c -2.2,2.3 -5.2,3.7 -8.5,3.7 -6.5,0 -11.9,-5.4 -11.9,-11.9 0,-6.5 5.4,-11.9 11.9,-11.9 3.1,0 6.1,1.3 8.3,3.4 z"
   id="path39" />
		<path
   class="st15"
   d="m 82.9,8.1 c -10.8,0 -19.7,8.8 -19.7,19.7 0,10.9 8.8,19.7 19.7,19.7 10.9,0 19.7,-8.8 19.7,-19.7 0,-10.9 -8.8,-19.7 -19.7,-19.7 z m 8.5,11.2 2.7,-2.7 C 91.3,13.8 87.3,12 83.1,12 c -8.7,0 -15.8,7.2 -15.8,15.8 0,8.7 7.2,15.8 15.8,15.8 4.4,0 8.4,-1.8 11.2,-4.8 L 91.6,36 c -2.2,2.3 -5.2,3.7 -8.5,3.7 -6.5,0 -11.9,-5.4 -11.9,-11.9 0,-6.5 5.4,-11.9 11.9,-11.9 3.1,0 6.1,1.3 8.3,3.4 z"
   id="path41" />
		<path
   class="st16"
   d="m 151.3,70.4 -0.4,2.2 c -0.1,0.7 0.3,1.2 0.9,1.2 0.7,0 1.2,-0.4 1.3,-1.1 l 0.4,-2.1 c 0.1,-0.6 -0.3,-1.1 -0.9,-1.1 -0.7,-0.2 -1.2,0.2 -1.3,0.9 m 0.4,2.2 0.4,-2.3 c 0,-0.2 0.2,-0.3 0.4,-0.3 0.2,0 0.3,0.1 0.3,0.3 l -0.4,2.3 c 0,0.2 -0.2,0.4 -0.4,0.4 -0.2,0 -0.3,-0.1 -0.3,-0.4 z m 3.4,0.7 -0.1,0.3 h 0.8 L 156.7,68 H 156 l -0.3,1.8 c -0.2,-0.3 -0.4,-0.4 -0.6,-0.4 -0.5,0 -0.8,0.4 -0.9,1 l -0.4,2.3 c -0.1,0.6 0.1,0.9 0.5,0.9 0.3,0.1 0.5,-0.1 0.8,-0.3 z m 0.1,-0.5 c -0.1,0.1 -0.3,0.2 -0.4,0.2 -0.2,0 -0.3,-0.1 -0.2,-0.4 l 0.4,-2.2 c 0,-0.3 0.2,-0.4 0.4,-0.4 0.1,0 0.2,0.1 0.3,0.2 z"
   id="path43" />
		<path
   class="st16"
   d="m 160.1,78 c -0.5,0 -0.6,-0.4 -0.4,-1.3 0.1,-0.9 0.3,-1.3 0.8,-1.3 0.5,0 0.5,0.4 0.4,1.3 -0.2,0.9 -0.4,1.3 -0.8,1.3 m -0.7,4.3 c -0.6,0 -0.6,-0.5 -0.5,-1.6 0.1,-0.9 0.4,-1.3 0.9,-1.3 0.5,0 0.6,0.5 0.4,1.5 -0.1,0.9 -0.3,1.4 -0.8,1.4 z m -0.5,-3.6 c -0.7,0.4 -1.1,1.1 -1.2,2.2 -0.3,1.8 0.2,2.7 1.5,2.7 1.2,0 2.1,-0.9 2.4,-2.6 0.2,-1.2 0,-2 -0.5,-2.3 0.6,-0.4 0.9,-1 1.1,-2 0.3,-1.5 -0.3,-2.3 -1.4,-2.3 -1.2,0 -2,0.8 -2.2,2.3 -0.3,1 -0.2,1.6 0.3,2 z m -5.9,2.2 v 0.3 c -0.3,1.6 0.2,2.4 1.4,2.4 1.2,0 2.1,-0.8 2.3,-2.1 l 0.4,-2.2 c 0.2,-1.2 -0.2,-1.9 -1,-1.9 -0.4,0 -0.9,0.2 -1.3,0.6 l 0.5,-2.1 h 2.3 l 0.2,-1.3 h -3.3 l -0.9,4.6 h 1.1 c 0.2,-0.5 0.5,-0.7 0.9,-0.7 0.4,0 0.5,0.2 0.5,0.7 l -0.4,2.2 c -0.1,0.6 -0.4,0.9 -0.8,0.9 -0.5,0 -0.6,-0.3 -0.5,-1 l 0.1,-0.4 z m -1.9,-2.7 c -0.2,0.3 -0.5,0.5 -0.8,0.5 -0.5,0 -0.6,-0.3 -0.5,-1 l 0.2,-1.2 c 0.1,-0.6 0.4,-0.9 0.8,-0.9 0.4,0 0.7,0.3 0.6,0.8 z m -3.3,3.1 c -0.2,1.4 0.4,2.3 1.6,2.3 1.3,0 2.2,-0.8 2.4,-2.2 l 0.8,-4.5 c 0.3,-1.6 -0.3,-2.4 -1.6,-2.4 -1.4,0 -2.2,0.9 -2.6,2.8 -0.3,1.8 0.1,2.7 1.3,2.7 0.4,0 0.8,-0.2 1.1,-0.5 l -0.4,2.2 c -0.1,0.4 -0.4,0.7 -0.8,0.7 -0.4,0 -0.6,-0.3 -0.6,-0.7 l 0.1,-0.6 h -1.3 z m -2.9,-4.8 h 1.1 l -1.1,6.8 h 1.3 l 1.5,-8.8 h -0.9 c -0.4,0.5 -0.9,0.8 -1.7,1.1 z m 8.2,-8.7 c 5.7,0 10.4,4.6 10.4,10.4 0,5.7 -4.6,10.4 -10.4,10.4 -5.7,0 -10.4,-4.6 -10.4,-10.4 0.1,-5.7 4.7,-10.4 10.4,-10.4 z m 0,-0.8 c 6.2,0 11.3,5 11.3,11.3 0,6.2 -5,11.3 -11.3,11.3 -6.2,0 -11.3,-5 -11.3,-11.3 C 141.9,72 146.9,67 153.1,67 Z"
   id="path45" />
		<path
   class="st17"
   d="m 86.9,83.7 h 1.7 l 1,-6.5 H 87.9 Z M 88.1,76 h 1.7 l 0.3,-1.8 h -1.7 z"
   id="path47" />
		<path
   class="st18"
   d="m 99.2,82.6 c 0,0.4 -0.1,0.8 0,1.1 h 1.6 c 0,-0.4 0.1,-1.3 0.3,-2.7 l 0.6,-4 c 0.3,-2 -0.2,-3 -1.7,-3 -1.4,0 -2.6,1.1 -2.9,2.7 0,0.1 0,0.2 0,0.3 h 1.7 l 0.1,-0.5 c 0.1,-0.5 0.4,-0.8 0.9,-0.8 0.4,0 0.5,0.3 0.4,0.9 l -0.2,1 c -2.4,1.3 -3.6,2.3 -3.9,4.2 -0.2,1.4 0.2,2.1 1.1,2.1 0.6,-0.1 1.3,-0.5 2,-1.3 m 0.1,-1.3 c -0.3,0.6 -0.8,0.9 -1.2,0.9 -0.3,0 -0.5,-0.3 -0.4,-0.9 0.2,-1 0.7,-1.6 1.9,-2.4 z"
   id="path49" />
		<path
   class="st19"
   d="m 90.4,81 c -0.3,1.9 0.5,2.9 1.9,2.9 1.6,0 2.6,-1 2.9,-2.9 l 0.1,-0.8 H 93.6 L 93.5,81 c -0.1,0.9 -0.3,1.3 -0.9,1.3 C 92,82.3 92,81.9 92.1,81 l 0.7,-4.2 c 0.1,-0.7 0.4,-1.1 0.9,-1.1 0.5,0 0.7,0.4 0.5,1.1 l -0.1,0.8 h 1.7 l 0.1,-0.7 c 0.3,-1.8 -0.5,-2.8 -1.9,-2.8 -1.4,0 -2.6,1 -2.9,2.8 z"
   id="path51" />
		<path
   class="st20"
   d="m 82.5,83.7 h 1.7 l 1,-6.2 c 0.1,-0.9 0.7,-1.5 1.6,-1.5 0.2,0 0.4,0 0.5,0.1 l 0.3,-2 h -0.2 c -0.7,0 -1.4,0.5 -2,1.4 l 0.2,-1.3 h -1.7 z"
   id="path53" />
		<polygon
   class="st21"
   points="80,83.7 83.1,74.2 81.5,74.2 79.8,80.1 79.7,80.1 79.6,74.2 78.1,74.2 78.5,83.7 "
   id="polygon55" />
		<path
   class="st22"
   d="m 74.4,82.6 c 0,0.4 -0.1,0.8 0,1.1 H 76 c 0,-0.4 0.1,-1.3 0.3,-2.7 l 0.6,-4 c 0.3,-2 -0.2,-3 -1.7,-3 -1.4,0 -2.6,1.1 -2.9,2.7 0,0.1 0,0.2 0,0.3 H 74 l 0.1,-0.5 c 0.1,-0.5 0.4,-0.8 0.9,-0.8 0.4,0 0.5,0.3 0.4,0.9 l -0.2,1 c -2.4,1.3 -3.6,2.3 -3.9,4.2 -0.2,1.4 0.2,2.1 1.1,2.1 0.6,-0.1 1.4,-0.5 2,-1.3 m 0.2,-1.3 c -0.3,0.6 -0.8,0.9 -1.2,0.9 -0.3,0 -0.5,-0.3 -0.4,-0.9 0.2,-1 0.7,-1.6 1.9,-2.4 z"
   id="path57" />
		<path
   class="st12"
   d="m 62.2,83.7 h 1.7 L 65,76.5 c 0.5,-0.5 0.9,-0.7 1.1,-0.7 0.4,0 0.4,0.2 0.4,0.7 l -1.1,7.1 h 1.5 L 68,76.4 c 0.4,-0.5 0.9,-0.7 1.1,-0.7 0.4,0 0.4,0.2 0.3,0.7 l -1.1,7.1 H 70 l 1.2,-7.9 C 71.4,74.5 71,74 70.2,74 c -0.6,0 -1.3,0.4 -2,1.1 0,-0.7 -0.4,-1.1 -1,-1.1 -0.7,0 -1.3,0.4 -2,1.1 l 0.2,-1 h -1.7 z"
   id="path59" />
		<path
   class="st16"
   d="m 105.2,83.7 h 4.4 l 0.3,-1.7 h -2.6 l 3.5,-6.2 0.2,-1.6 h -4.2 l -0.3,1.6 h 2.5 l -3.6,6.2 z m 5.6,0 h 1.7 l 1.1,-7.2 c 0.4,-0.5 0.9,-0.7 1.1,-0.7 0.4,0 0.4,0.2 0.3,0.7 l -1.1,7.1 h 1.6 l 1.2,-7.9 c 0.2,-1.1 -0.1,-1.7 -0.9,-1.7 -0.6,0 -1.3,0.4 -2.1,1.2 l 0.2,-1 h -1.7 z m 9.3,-1.1 c 0,0.4 -0.1,0.8 0,1.1 h 1.6 c 0,-0.4 0.1,-1.3 0.3,-2.7 l 0.6,-4 c 0.3,-2 -0.2,-3 -1.7,-3 -1.4,0 -2.6,1.1 -2.9,2.7 0,0.1 0,0.2 0,0.3 h 1.7 l 0.1,-0.5 c 0.1,-0.5 0.4,-0.8 0.9,-0.8 0.4,0 0.5,0.3 0.4,0.9 l -0.2,1 c -2.4,1.3 -3.6,2.3 -3.9,4.2 -0.2,1.4 0.2,2.1 1.1,2.1 0.6,-0.1 1.3,-0.5 2,-1.3 z m 0.1,-1.3 c -0.3,0.6 -0.8,0.9 -1.2,0.9 -0.3,0 -0.5,-0.3 -0.4,-0.9 0.2,-1 0.7,-1.6 1.9,-2.4 z m 2.9,2.4 h 1.7 l 1.1,-7.2 c 0.4,-0.5 0.9,-0.7 1.1,-0.7 0.4,0 0.4,0.2 0.3,0.7 l -1.1,7.1 h 1.6 l 1.2,-7.9 c 0.2,-1.1 -0.1,-1.7 -0.9,-1.7 -0.6,0 -1.3,0.4 -2.1,1.2 l 0.2,-1 h -1.7 z m 8.9,-6.6 h -1.6 l -1.1,7.2 c 0,0.3 -0.4,0.7 -0.8,0.7 -0.1,0 -0.3,0 -0.5,-0.1 l -0.2,1.5 c 0.3,0.1 0.6,0.1 0.9,0.1 1.3,0 2,-0.7 2.3,-2.2 z M 130.5,76 h 1.6 l 0.3,-1.8 h -1.6 z m 5.1,6.6 c 0,0.4 -0.1,0.8 0,1.1 h 1.6 c 0,-0.4 0.1,-1.3 0.3,-2.7 l 0.6,-4 c 0.3,-2 -0.2,-3 -1.7,-3 -1.4,0 -2.6,1.1 -2.9,2.7 0,0.1 0,0.2 0,0.3 h 1.7 l 0.1,-0.5 c 0.1,-0.5 0.4,-0.8 0.9,-0.8 0.4,0 0.5,0.3 0.4,0.9 l -0.2,1 c -2.4,1.3 -3.6,2.3 -3.9,4.2 -0.2,1.4 0.2,2.1 1.1,2.1 0.6,-0.1 1.4,-0.5 2,-1.3 z m 0.2,-1.3 c -0.3,0.6 -0.8,0.9 -1.2,0.9 -0.3,0 -0.5,-0.3 -0.4,-0.9 0.2,-1 0.7,-1.6 1.9,-2.4 z"
   id="path61" />
	</g>
</g>
</svg>
